<svg id="lock" xmlns="http://www.w3.org/2000/svg" width="81.06" height="93.084" viewBox="0 0 81.06 93.084">
  <path id="Path_19562" d="M151.463,29.761V46.542H137.887V29.761A16.2,16.2,0,0,0,121.7,13.576h0a16.2,16.2,0,0,0-16.186,16.186V46.542H91.94V29.761A29.794,29.794,0,0,1,121.7,0h0A29.794,29.794,0,0,1,151.463,29.761Z" transform="translate(-81.171)" fill="#005baa"/>
  <path id="Path_19563" d="M284.761,29.761V46.542H271.186V29.761A16.2,16.2,0,0,0,255,13.576h0V0h0A29.794,29.794,0,0,1,284.761,29.761Z" transform="translate(-214.47)" fill="#005baa"/>
  <path id="Path_19564" d="M114,231.567v40.245a5.818,5.818,0,0,1-5.817,5.819H38.757a5.818,5.818,0,0,1-5.817-5.819V231.567a5.817,5.817,0,0,1,5.817-5.817h69.426A5.817,5.817,0,0,1,114,231.567Z" transform="translate(-32.94 -184.547)" fill="#005baa"/>
  <path id="Path_19565" d="M295.53,231.567v40.245a5.818,5.818,0,0,1-5.817,5.819H255V225.75h34.713A5.817,5.817,0,0,1,295.53,231.567Z" transform="translate(-214.47 -184.547)" fill="#005baa"/>
  <path id="Path_19566" d="M214.962,294.327a.339.339,0,0,0-.248.312v2.289a2.738,2.738,0,0,1-5.476,0v-2.289a5.787,5.787,0,0,1,2.738-4.919,5.9,5.9,0,0,1,1.285-.6,4.131,4.131,0,1,0-5.415-3.926,2.738,2.738,0,0,1-5.476,0,9.606,9.606,0,1,1,12.592,9.131Z" transform="translate(-171.446 -225.29)" fill="#fff"/>
  <path id="Path_19567" d="M257.986,294.327a.339.339,0,0,0-.248.312v2.289A2.738,2.738,0,0,1,255,299.666v-9.945a5.9,5.9,0,0,1,1.285-.6A4.131,4.131,0,0,0,255,281.066V275.59a9.607,9.607,0,0,1,2.986,18.737Z" transform="translate(-214.47 -225.29)" fill="#dfebfc"/>
  <path id="Path_19568" d="M245.476,432.018v.23a2.738,2.738,0,0,1-5.476,0v-.23a2.738,2.738,0,0,1,5.476,0Z" transform="translate(-202.208 -350.929)" fill="#fff"/>
  <path id="Path_19569" d="M257.738,432.018v.23A2.739,2.739,0,0,1,255,434.986V429.28A2.739,2.739,0,0,1,257.738,432.018Z" transform="translate(-214.47 -350.929)" fill="#fff"/>
</svg>
