<svg id="Icon_awesome-check-circle" data-name="Icon awesome-check-circle" xmlns="http://www.w3.org/2000/svg" width="91" height="91" viewBox="0 0 91 91">
  <path id="Icon_awesome-check-circle-2" d="M91.563,46.063a45.5,45.5,0,1,1-45.5-45.5A45.5,45.5,0,0,1,91.563,46.063ZM40.8,70.154,74.558,36.4a2.936,2.936,0,0,0,0-4.151l-4.151-4.151a2.935,2.935,0,0,0-4.152,0L38.724,55.624,25.87,42.771a2.936,2.936,0,0,0-4.152,0l-4.151,4.151a2.936,2.936,0,0,0,0,4.151L36.648,70.154A2.936,2.936,0,0,0,40.8,70.154Z" transform="translate(-0.563 -0.563)" fill="#005baa"/>
</svg>
